<svg width="216" height="286" viewBox="0 0 216 286" fill="none" xmlns="http://www.w3.org/2000/svg">
<path d="M34 36C34 16.1177 50.1178 0 70 0H192C205.255 0 216 10.7452 216 24V246C216 259.255 205.255 270 192 270H58C44.7452 270 34 259.255 34 246V36Z" fill="white"/>
<path d="M0 52C0 32.1177 16.1177 16 36 16H158C166.837 16 174 23.1634 174 32V262C174 275.255 163.255 286 150 286H24C10.7452 286 0 275.255 0 262V52Z" fill="white"/>
<g style="mix-blend-mode:multiply" opacity="0.36">
<path d="M34 36C34 16.1177 50.1178 0 70 0H192C205.255 0 216 10.7452 216 24V246C216 259.255 205.255 270 192 270H58C44.7452 270 34 259.255 34 246V36Z" fill="#0058CB"/>
</g>
<g style="mix-blend-mode:multiply" opacity="0.64">
<path d="M0 52C0 32.1177 16.1177 16 36 16H158C166.837 16 174 23.1634 174 32V262C174 275.255 163.255 286 150 286H24C10.7452 286 0 275.255 0 262V52Z" fill="#0058CB"/>
</g>
<path d="M106 16H142V96H106V16Z" fill="white"/>
<path opacity="0.36" d="M106 16H142V96H106V16Z" fill="#0058CB"/>
<path d="M158 16H142V31.9998H158V16Z" fill="white"/>
<path opacity="0.36" d="M158 16H142V31.9998H158V16Z" fill="#0058CB"/>
<path d="M142 31.9998C142 23.1634 149.163 16 158 16V16V31.9998H142V31.9998Z" fill="white"/>
<path opacity="0.36" d="M142 31.9998C142 23.1634 149.163 16 158 16V16V31.9998H142V31.9998Z" fill="#0058CB"/>
<g style="mix-blend-mode:multiply" opacity="0.64">
<path d="M142 31.9998C142 23.1634 149.163 16 158 16V16V31.9998H142V31.9998Z" fill="#0058CB"/>
</g>
<path d="M91.9998 16H106V30H91.9998V16Z" fill="white"/>
<path opacity="0.36" d="M91.9998 16H106V30H91.9998V16Z" fill="#0058CB"/>
<path d="M106 32C106 23.1634 98.8366 16 90 16V16V32H106V32Z" fill="white"/>
<path opacity="0.36" d="M106 32C106 23.1634 98.8366 16 90 16V16V32H106V32Z" fill="#0058CB"/>
<g style="mix-blend-mode:multiply" opacity="0.64">
<path d="M106 32C106 23.1634 98.8366 16 90 16V16V32H106V32Z" fill="#0058CB"/>
</g>
<path d="M121.814 88.1253C122.982 86.9497 124.881 86.9432 126.057 88.1108L128.947 90.9813L133.966 95.9659L124.034 105.966L113.996 95.9967L121.814 88.1253Z" fill="#3B71CD"/>
<path d="M115.233 89.9246C116.693 91.02 116.845 93.155 115.554 94.4459L111.121 98.8787C109.231 100.769 106 99.4301 106 96.7574L106 89C106 86.5279 108.822 85.1167 110.8 86.6L115.233 89.9246Z" fill="#A3C3EC"/>
<path d="M132.767 89.9246C131.307 91.02 131.155 93.155 132.446 94.4459L136.879 98.8787C138.769 100.769 142 99.4301 142 96.7574L142 89C142 86.5279 139.178 85.1167 137.2 86.6L132.767 89.9246Z" fill="#A3C3EC"/>
</svg>
